<?xml version="1.0" encoding="UTF-8" standalone="no"?>
<!DOCTYPE svg PUBLIC "-//W3C//DTD SVG 1.1//EN"
 "http://www.w3.org/Graphics/SVG/1.1/DTD/svg11.dtd">
<!-- Generated by graphviz version 2.40.1 (20161225.0304)
 -->
<!-- Title: G Pages: 1 -->
<svg width="576pt" height="189pt"
 viewBox="0.00 0.00 576.00 188.80" xmlns="http://www.w3.org/2000/svg" xmlns:xlink="http://www.w3.org/1999/xlink">
<g id="graph0" class="graph" transform="scale(1.3111 1.3111) rotate(0) translate(4 140)">
<title>G</title>
<polygon fill="#ffffff" stroke="transparent" points="-4,4 -4,-140 435.3255,-140 435.3255,4 -4,4"/>
<text text-anchor="middle" x="215.6627" y="-105" font-family="Times,serif" font-size="30.00" fill="#000000">Diagrama Sinalização easyRTC</text>
<!-- CANDIDATE -->
<g id="node1" class="node">
<title>CANDIDATE</title>
<ellipse fill="none" stroke="#000000" cx="67.3471" cy="-38" rx="67.1946" ry="18"/>
<text text-anchor="middle" x="67.3471" y="-33.8" font-family="Times,serif" font-size="14.00" fill="#000000">CANDIDATE</text>
</g>
<!-- OFFER -->
<g id="node2" class="node">
<title>OFFER</title>
<ellipse fill="none" stroke="#000000" cx="231.2075" cy="-63" rx="41.1684" ry="18"/>
<text text-anchor="middle" x="231.2075" y="-58.8" font-family="Times,serif" font-size="14.00" fill="#000000">OFFER</text>
</g>
<!-- CANDIDATE&#45;&gt;OFFER -->
<g id="edge1" class="edge">
<title>CANDIDATE&#45;&gt;OFFER</title>
<path fill="none" stroke="#000000" d="M118.6182,-49.8453C129.8045,-52.1403 141.6114,-54.3433 152.6942,-56 161.5445,-57.323 170.9961,-58.4269 180.1645,-59.3372"/>
<polygon fill="#000000" stroke="#000000" points="180.0671,-62.8432 190.3483,-60.2841 180.7153,-55.8732 180.0671,-62.8432"/>
</g>
<!-- OFFER&#45;&gt;CANDIDATE -->
<g id="edge3" class="edge">
<title>OFFER&#45;&gt;CANDIDATE</title>
<path fill="none" stroke="#000000" d="M206.4912,-48.3989C196.2253,-43.1365 183.9613,-37.8458 172.1234,-35.2 161.8956,-32.914 150.9666,-31.7983 140.1696,-31.4421"/>
<polygon fill="#000000" stroke="#000000" points="139.9265,-27.939 129.8856,-31.3198 139.8432,-34.9385 139.9265,-27.939"/>
<text text-anchor="middle" x="162.4088" y="-39.2" font-family="Times,serif" font-size="14.00" fill="#000000">ack</text>
</g>
<!-- ANSWER -->
<g id="node3" class="node">
<title>ANSWER</title>
<ellipse fill="none" stroke="#000000" cx="379.5232" cy="-74" rx="51.6054" ry="18"/>
<text text-anchor="middle" x="379.5232" y="-69.8" font-family="Times,serif" font-size="14.00" fill="#000000">ANSWER</text>
</g>
<!-- OFFER&#45;&gt;ANSWER -->
<g id="edge2" class="edge">
<title>OFFER&#45;&gt;ANSWER</title>
<path fill="none" stroke="#000000" d="M263.0087,-74.5672C271.7342,-77.2217 281.2764,-79.6572 290.2916,-81 300.6577,-82.544 311.7553,-82.7886 322.4795,-82.3112"/>
<polygon fill="#000000" stroke="#000000" points="322.8596,-85.794 332.6109,-81.6512 322.4045,-78.8088 322.8596,-85.794"/>
</g>
<!-- REJECT -->
<g id="node4" class="node">
<title>REJECT</title>
<ellipse fill="none" stroke="#000000" cx="379.5232" cy="-18" rx="45.242" ry="18"/>
<text text-anchor="middle" x="379.5232" y="-13.8" font-family="Times,serif" font-size="14.00" fill="#000000">REJECT</text>
</g>
<!-- OFFER&#45;&gt;REJECT -->
<g id="edge5" class="edge">
<title>OFFER&#45;&gt;REJECT</title>
<path fill="none" stroke="#000000" d="M265.2341,-52.6761C285.4811,-46.533 311.4394,-38.6571 333.4985,-31.9642"/>
<polygon fill="#000000" stroke="#000000" points="334.7718,-35.2355 343.3248,-28.9828 332.7394,-28.537 334.7718,-35.2355"/>
</g>
<!-- ANSWER&#45;&gt;OFFER -->
<g id="edge4" class="edge">
<title>ANSWER&#45;&gt;OFFER</title>
<path fill="none" stroke="#000000" d="M336.1527,-64.0655C327.4454,-62.4561 318.3268,-61.0426 309.7208,-60.2 301.1267,-59.3586 298.9244,-59.9956 290.2916,-60.2 287.7315,-60.2606 285.1094,-60.336 282.4619,-60.4227"/>
<polygon fill="#000000" stroke="#000000" points="282.0629,-56.9351 272.2005,-60.8058 282.3242,-63.9302 282.0629,-56.9351"/>
<text text-anchor="middle" x="300.0062" y="-64.2" font-family="Times,serif" font-size="14.00" fill="#000000">ack</text>
</g>
<!-- REJECT&#45;&gt;CANDIDATE -->
<g id="edge6" class="edge">
<title>REJECT&#45;&gt;CANDIDATE</title>
<path fill="none" stroke="#000000" d="M334.2877,-16.4412C295.8671,-15.5588 239.2929,-15.3006 190.1234,-19.2 171.4418,-20.6816 151.2948,-23.3238 132.8303,-26.1679"/>
<polygon fill="#000000" stroke="#000000" points="132.0944,-22.7408 122.7654,-27.7627 133.1899,-29.6546 132.0944,-22.7408"/>
<text text-anchor="middle" x="231.2075" y="-23.2" font-family="Times,serif" font-size="14.00" fill="#000000">ack</text>
</g>
</g>
</svg>
