<?xml version="1.0" encoding="UTF-8" standalone="no"?>
<!DOCTYPE svg PUBLIC "-//W3C//DTD SVG 1.1//EN"
 "http://www.w3.org/Graphics/SVG/1.1/DTD/svg11.dtd">
<!-- Generated by graphviz version 2.40.1 (20161225.0304)
 -->
<!-- Title: G Pages: 1 -->
<svg width="576pt" height="165pt"
 viewBox="0.00 0.00 576.00 164.62" xmlns="http://www.w3.org/2000/svg" xmlns:xlink="http://www.w3.org/1999/xlink">
<g id="graph0" class="graph" transform="scale(1.1432 1.1432) rotate(0) translate(4 140)">
<title>G</title>
<polygon fill="#ffffff" stroke="transparent" points="-4,4 -4,-140 499.841,-140 499.841,4 -4,4"/>
<text text-anchor="middle" x="247.9205" y="-105" font-family="Times,serif" font-size="30.00" fill="#000000">Diagrama de Sinalização do easyRTC</text>
<!-- CANDIDATE -->
<g id="node1" class="node">
<title>CANDIDATE</title>
<ellipse fill="none" stroke="#000000" cx="99.6049" cy="-38" rx="67.1946" ry="18"/>
<text text-anchor="middle" x="99.6049" y="-33.8" font-family="Times,serif" font-size="14.00" fill="#000000">CANDIDATE</text>
</g>
<!-- OFFER -->
<g id="node2" class="node">
<title>OFFER</title>
<ellipse fill="none" stroke="#000000" cx="263.4653" cy="-63" rx="41.1684" ry="18"/>
<text text-anchor="middle" x="263.4653" y="-58.8" font-family="Times,serif" font-size="14.00" fill="#000000">OFFER</text>
</g>
<!-- CANDIDATE&#45;&gt;OFFER -->
<g id="edge1" class="edge">
<title>CANDIDATE&#45;&gt;OFFER</title>
<path fill="none" stroke="#000000" d="M150.8759,-49.8453C162.0623,-52.1403 173.8692,-54.3433 184.952,-56 193.8023,-57.323 203.2539,-58.4269 212.4222,-59.3372"/>
<polygon fill="#000000" stroke="#000000" points="212.3249,-62.8432 222.606,-60.2841 212.9731,-55.8732 212.3249,-62.8432"/>
</g>
<!-- OFFER&#45;&gt;CANDIDATE -->
<g id="edge3" class="edge">
<title>OFFER&#45;&gt;CANDIDATE</title>
<path fill="none" stroke="#000000" d="M238.7489,-48.3989C228.4831,-43.1365 216.219,-37.8458 204.3812,-35.2 194.1533,-32.914 183.2243,-31.7983 172.4274,-31.4421"/>
<polygon fill="#000000" stroke="#000000" points="172.1843,-27.939 162.1433,-31.3198 172.101,-34.9385 172.1843,-27.939"/>
<text text-anchor="middle" x="194.6666" y="-39.2" font-family="Times,serif" font-size="14.00" fill="#000000">ack</text>
</g>
<!-- ANSWER -->
<g id="node3" class="node">
<title>ANSWER</title>
<ellipse fill="none" stroke="#000000" cx="411.7809" cy="-74" rx="51.6054" ry="18"/>
<text text-anchor="middle" x="411.7809" y="-69.8" font-family="Times,serif" font-size="14.00" fill="#000000">ANSWER</text>
</g>
<!-- OFFER&#45;&gt;ANSWER -->
<g id="edge2" class="edge">
<title>OFFER&#45;&gt;ANSWER</title>
<path fill="none" stroke="#000000" d="M295.2665,-74.5672C303.9919,-77.2217 313.5342,-79.6572 322.5494,-81 332.9155,-82.544 344.0131,-82.7886 354.7372,-82.3112"/>
<polygon fill="#000000" stroke="#000000" points="355.1174,-85.794 364.8687,-81.6512 354.6623,-78.8088 355.1174,-85.794"/>
</g>
<!-- REJECT -->
<g id="node4" class="node">
<title>REJECT</title>
<ellipse fill="none" stroke="#000000" cx="411.7809" cy="-18" rx="45.242" ry="18"/>
<text text-anchor="middle" x="411.7809" y="-13.8" font-family="Times,serif" font-size="14.00" fill="#000000">REJECT</text>
</g>
<!-- OFFER&#45;&gt;REJECT -->
<g id="edge5" class="edge">
<title>OFFER&#45;&gt;REJECT</title>
<path fill="none" stroke="#000000" d="M297.4919,-52.6761C317.7388,-46.533 343.6971,-38.6571 365.7562,-31.9642"/>
<polygon fill="#000000" stroke="#000000" points="367.0295,-35.2355 375.5826,-28.9828 364.9971,-28.537 367.0295,-35.2355"/>
</g>
<!-- ANSWER&#45;&gt;OFFER -->
<g id="edge4" class="edge">
<title>ANSWER&#45;&gt;OFFER</title>
<path fill="none" stroke="#000000" d="M368.4105,-64.0655C359.7031,-62.4561 350.5845,-61.0426 341.9786,-60.2 333.3845,-59.3586 331.1822,-59.9956 322.5494,-60.2 319.9892,-60.2606 317.3672,-60.336 314.7196,-60.4227"/>
<polygon fill="#000000" stroke="#000000" points="314.3207,-56.9351 304.4583,-60.8058 314.5819,-63.9302 314.3207,-56.9351"/>
<text text-anchor="middle" x="332.264" y="-64.2" font-family="Times,serif" font-size="14.00" fill="#000000">ack</text>
</g>
<!-- REJECT&#45;&gt;CANDIDATE -->
<g id="edge6" class="edge">
<title>REJECT&#45;&gt;CANDIDATE</title>
<path fill="none" stroke="#000000" d="M366.5454,-16.4412C328.1249,-15.5588 271.5506,-15.3006 222.3812,-19.2 203.6996,-20.6816 183.5526,-23.3238 165.0881,-26.1679"/>
<polygon fill="#000000" stroke="#000000" points="164.3522,-22.7408 155.0231,-27.7627 165.4477,-29.6546 164.3522,-22.7408"/>
<text text-anchor="middle" x="263.4653" y="-23.2" font-family="Times,serif" font-size="14.00" fill="#000000">ack</text>
</g>
</g>
</svg>
